<?xml version="1.0" encoding="utf-8"?><svg viewBox="0 0 240 68" xmlns="http://www.w3.org/2000/svg" xmlns:xlink="http://www.w3.org/1999/xlink"><style>:root>svg{display:none}:root>svg:target{display:block}</style><svg viewBox="0 0 24 24" id="arrow" xmlns="http://www.w3.org/2000/svg"><path d="M9 18l6-6-6-6"/></svg><svg viewBox="0 0 24 24" id="clock" xmlns="http://www.w3.org/2000/svg"><path d="M12 22c5.523 0 10-4.477 10-10S17.523 2 12 2 2 6.477 2 12s4.477 10 10 10z"/><path d="M12 6v6l4 2"/></svg><svg viewBox="0 0 24 24" id="dislike" xmlns="http://www.w3.org/2000/svg"><path d="M7 14V2m8 16.12L14 14h5.83a2 2 0 001.92-2.56l-2.33-8A2 2 0 0017.5 2H4a2 2 0 00-2 2v8a2 2 0 002 2h2.76a2 2 0 011.79 1.11L12 22a3.13 3.13 0 003-3.88z"/></svg><svg viewBox="0 0 24 24" id="like" xmlns="http://www.w3.org/2000/svg"><path d="M7 10v12m8-16.12L14 10h5.83a2 2 0 011.92 2.56l-2.33 8A2 2 0 0117.5 22H4a2 2 0 01-2-2v-8a2 2 0 012-2h2.76a2 2 0 001.79-1.11L12 2a3.13 3.13 0 013 3.88z"/></svg><svg viewBox="0 0 240 68" id="logo" xmlns="http://www.w3.org/2000/svg"><path d="M11.33 55.36c-2.707 0-5.11-.91-7.21-2.73-2.1-1.82-3.15-4.2-3.15-7.14 0-4.34 2.263-8.47 6.79-12.39 2.193-1.913 5.063-3.5 8.61-4.76 3.593-1.307 7.56-2.077 11.9-2.31 1.68-4.247 3.827-10.71 6.44-19.39.047-.187.07-.513.07-.98 0-.513-.233-.933-.7-1.26v-.98c4.387-.747 8.563-1.12 12.53-1.12l5.32.28c.467.467.933 1.517 1.4 3.15.467 1.587.77 3.71.91 6.37s.233 8.797.28 18.41c5.133 2.007 9.73 4.433 13.79 7.28-.233.887-.77 1.773-1.61 2.66-.793.887-1.54 1.563-2.24 2.03l-.98.63c-2.52-2.427-5.483-4.597-8.89-6.51.233 6.533 1.12 9.8 2.66 9.8.513 0 1.073-.117 1.68-.35l1.68 3.85c-3.36 1.96-6.883 2.94-10.57 2.94-5.88 0-8.82-3.523-8.82-10.57V32.26a55.203 55.203 0 00-8.05-1.05c-2.753 7.093-5.67 12.717-8.75 16.87-3.593 4.853-7.957 7.28-13.09 7.28zM8.81 45.07c0 1.167.28 2.147.84 2.94.56.793 1.4 1.19 2.52 1.19 1.633 0 3.313-.98 5.04-2.94 1.727-2.007 3.43-4.597 5.11-7.77 1.727-3.173 2.963-5.577 3.71-7.21-5.507.653-9.753 2.403-12.74 5.25s-4.48 5.693-4.48 8.54zm32.41-21.28c0-7.653-.21-12.367-.63-14.14-.047-.047-.187-.07-.42-.07-.233 0-.373.023-.42.07-.093 1.96-1.68 7.443-4.76 16.45 1.82.14 3.897.397 6.23.77v-3.08zm33.477 25.2c-3.267 1.773-6.183 2.66-8.75 2.66-2.52 0-4.643-1.003-6.37-3.01-1.68-2.053-2.52-5.087-2.52-9.1 0-5.367 1.447-9.8 4.34-13.3 2.94-3.5 6.44-5.25 10.5-5.25 1.96 0 4.177.537 6.65 1.61 2.893-.887 6.183-1.33 9.87-1.33h1.19c.233.467.35 1.517.35 3.15 0 1.587-.303 4.737-.91 9.45-.56 4.713-1.19 8.657-1.89 11.83-1.493 6.767-3.827 12.11-7 16.03-3.127 3.967-7.07 5.95-11.83 5.95-2.333 0-4.247-.513-5.74-1.54-1.447-1.027-2.17-2.333-2.17-3.92 0-1.587.373-2.917 1.12-3.99.793-1.027 1.913-1.89 3.36-2.59 2.473-1.213 5.507-2.217 9.1-3.01l.7-3.64zm.42-22.33c-1.633 0-2.893 1.4-3.78 4.2-.84 2.8-1.26 5.833-1.26 9.1 0 3.267.77 4.9 2.31 4.9.653 0 1.61-.327 2.87-.98.373-3.78.98-9.38 1.82-16.8-.7-.28-1.353-.42-1.96-.42zm-7.98 35.84c.887 0 1.89-.443 3.01-1.33 1.167-.887 2.123-2.333 2.87-4.34-5.087.887-7.63 2.24-7.63 4.06.093 1.073.677 1.61 1.75 1.61zm22.395-23.17c0-5.787 1.75-10.29 5.25-13.51 3.547-3.22 7.91-4.83 13.09-4.83 3.593 0 6.463.793 8.61 2.38 2.193 1.54 3.29 3.617 3.29 6.23 0 1.913-.583 3.617-1.75 5.11a11.695 11.695 0 01-4.27 3.43c-3.547 1.587-6.627 2.543-9.24 2.87l-1.75.21c.513 3.08 2.053 4.62 4.62 4.62 1.12 0 2.357-.233 3.71-.7 1.353-.513 2.427-1.027 3.22-1.54l1.19-.7 2.24 3.01-.77.77c-.28.28-.957.84-2.03 1.68a21.874 21.874 0 01-3.29 2.1c-1.12.607-2.567 1.143-4.34 1.61-1.773.513-3.547.77-5.32.77-3.967 0-7.047-1.143-9.24-3.43-2.147-2.333-3.22-5.693-3.22-10.08zm12.95-2.73c1.353-.187 2.707-1.283 4.06-3.29 1.353-2.053 2.03-3.757 2.03-5.11 0-1.4-.397-2.1-1.19-2.1-1.167 0-2.24.91-3.22 2.73-.98 1.82-1.54 4.41-1.68 7.77zm16.978 15.82h-1.19c0-2.893.654-7.28 1.96-13.16 1.354-5.88 2.03-9.263 2.03-10.15 0-.887-.21-1.75-.63-2.59-.42-.84-.84-1.47-1.26-1.89l-.63-.63.14-1.05c2.754-.887 7.56-1.33 14.42-1.33.467 1.073.794 2.193.98 3.36 4.247-2.613 7.817-3.92 10.71-3.92 1.96 0 3.5.653 4.62 1.96 1.12 1.26 1.68 2.8 1.68 4.62 0 1.773-.513 4.643-1.54 8.61-1.026 3.967-1.54 6.557-1.54 7.77 0 1.167.164 1.75.49 1.75l3.71-.98 1.26 3.5c-1.493 1.12-3.453 2.17-5.88 3.15-2.38.933-4.573 1.4-6.58 1.4-3.966 0-5.95-2.053-5.95-6.16 0-1.773.49-4.667 1.47-8.68s1.47-6.51 1.47-7.49c0-1.027-.326-1.54-.98-1.54-.84 0-1.96.467-3.36 1.4-.186.84-.653 2.87-1.4 6.09-1.493 6.767-2.24 11.643-2.24 14.63-2.286.887-6.206 1.33-11.76 1.33zm58.01.42c-2.893 0-4.76-1.12-5.6-3.36-3.547 2.24-6.72 3.36-9.52 3.36-2.753 0-4.993-.933-6.72-2.8-1.68-1.913-2.52-4.993-2.52-9.24 0-5.553 1.4-10.243 4.2-14.07 2.847-3.827 6.51-5.74 10.99-5.74 2.193 0 4.387.513 6.58 1.54 1.727-7.887 2.59-13.557 2.59-17.01 0-1.027-.07-2.053-.21-3.08 4.34-1.213 8.517-1.82 12.53-1.82.373.607.56 2.053.56 4.34 0 2.24-1.073 8.307-3.22 18.2-2.1 9.893-3.15 16.52-3.15 19.88 0 1.773.303 2.66.91 2.66l3.01-.98 1.26 3.57c-4.107 3.033-8.003 4.55-11.69 4.55zm-9.17-7.07c.84 0 1.773-.28 2.8-.84v-.07c.187-3.78 1.097-9.73 2.73-17.85-.933-.28-1.61-.42-2.03-.42-.98 0-1.843.49-2.59 1.47-.747.98-1.33 2.24-1.75 3.78-.793 3.173-1.19 6.3-1.19 9.38 0 3.033.677 4.55 2.03 4.55zm53.48-22.12c-.98 3.033-1.82 6.65-2.52 10.85-.7 4.153-1.05 7.07-1.05 8.75 0 1.633.256 2.45.77 2.45l3.5-.98 1.26 3.5c-1.494 1.167-3.407 2.24-5.74 3.22-2.287.933-4.317 1.4-6.09 1.4-3.034 0-4.947-1.307-5.74-3.92-3.687 2.613-6.954 3.92-9.8 3.92-2.8 0-4.97-1.027-6.51-3.08s-2.31-4.993-2.31-8.82c0-5.273 1.353-9.917 4.06-13.93 2.706-4.013 6.276-6.02 10.71-6.02 2.426 0 4.9.677 7.42 2.03.373-.84.676-1.447.91-1.82 3.36 0 7.07.817 11.13 2.45zM200.71 40.1c0 2.333.163 3.803.49 4.41.326.607.933.91 1.82.91.886 0 1.75-.35 2.59-1.05.186-5.413 1.073-11.083 2.66-17.01-.7-.42-1.517-.63-2.45-.63-.887 0-1.704.513-2.45 1.54-.7 1.027-1.237 2.31-1.61 3.85-.7 2.94-1.05 5.6-1.05 7.98zm31.587 12.74c-1.96 0-3.477-.537-4.55-1.61-1.027-1.12-1.54-2.567-1.54-4.34 0-1.82.7-3.36 2.1-4.62 1.447-1.307 3.15-1.96 5.11-1.96 2.007 0 3.523.537 4.55 1.61 1.073 1.027 1.61 2.427 1.61 4.2 0 1.773-.723 3.337-2.17 4.69-1.4 1.353-3.103 2.03-5.11 2.03z"/></svg><svg viewBox="0 0 25 25" id="search" xmlns="http://www.w3.org/2000/svg"><path d="M11.458 19.792a8.333 8.333 0 100-16.667 8.333 8.333 0 000 16.667zm10.417 2.083l-4.48-4.48"/></svg></svg>