<svg width="24" height="24" viewBox="0 0 24 24" fill="none" xmlns="http://www.w3.org/2000/svg">
<path d="M7 14V2" stroke="black" stroke-width="2" stroke-linecap="round" stroke-linejoin="round"/>
<path d="M15.0001 18.12L14.0001 14H19.8301C20.1406 14 20.4468 13.9277 20.7245 13.7889C21.0022 13.65 21.2438 13.4484 21.4301 13.2C21.6164 12.9516 21.7423 12.6633 21.7978 12.3578C21.8534 12.0523 21.837 11.7381 21.7501 11.44L19.4201 3.44C19.2989 3.02457 19.0463 2.65964 18.7001 2.4C18.3539 2.14036 17.9328 2 17.5001 2H4.00008C3.46965 2 2.96094 2.21071 2.58587 2.58579C2.21079 2.96086 2.00008 3.46957 2.00008 4V12C2.00008 12.5304 2.21079 13.0391 2.58587 13.4142C2.96094 13.7893 3.46965 14 4.00008 14H6.76008C7.13216 14.0002 7.49681 14.1042 7.81303 14.3003C8.12925 14.4964 8.3845 14.7768 8.55008 15.11L12.0001 22C12.4717 21.9942 12.9358 21.8818 13.3579 21.6714C13.7799 21.461 14.149 21.1579 14.4375 20.7848C14.726 20.4117 14.9264 19.9782 15.0238 19.5168C15.1212 19.0554 15.1131 18.5779 15.0001 18.12Z" stroke="black" stroke-width="2" stroke-linecap="round" stroke-linejoin="round"/>
</svg>
