<svg width="240" height="68" viewBox="0 0 240 68" fill="none" xmlns="http://www.w3.org/2000/svg">
<path d="M11.33 55.36C8.62333 55.36 6.22 54.45 4.12 52.63C2.02 50.81 0.97 48.43 0.97 45.49C0.97 41.15 3.23333 37.02 7.76 33.1C9.95333 31.1867 12.8233 29.6 16.37 28.34C19.9633 27.0333 23.93 26.2633 28.27 26.03C29.95 21.7833 32.0967 15.32 34.71 6.64C34.7567 6.45333 34.78 6.12666 34.78 5.66C34.78 5.14666 34.5467 4.72666 34.08 4.4V3.42C38.4667 2.67333 42.6433 2.3 46.61 2.3L51.93 2.58C52.3967 3.04666 52.8633 4.09666 53.33 5.73C53.7967 7.31666 54.1 9.44 54.24 12.1C54.38 14.76 54.4733 20.8967 54.52 30.51C59.6533 32.5167 64.25 34.9433 68.31 37.79C68.0767 38.6767 67.54 39.5633 66.7 40.45C65.9067 41.3367 65.16 42.0133 64.46 42.48L63.48 43.11C60.96 40.6833 57.9967 38.5133 54.59 36.6C54.8233 43.1333 55.71 46.4 57.25 46.4C57.7633 46.4 58.3233 46.2833 58.93 46.05L60.61 49.9C57.25 51.86 53.7267 52.84 50.04 52.84C44.16 52.84 41.22 49.3167 41.22 42.27V32.26C38.4667 31.7 35.7833 31.35 33.17 31.21C30.4167 38.3033 27.5 43.9267 24.42 48.08C20.8267 52.9333 16.4633 55.36 11.33 55.36ZM8.81 45.07C8.81 46.2367 9.09 47.2167 9.65 48.01C10.21 48.8033 11.05 49.2 12.17 49.2C13.8033 49.2 15.4833 48.22 17.21 46.26C18.9367 44.2533 20.64 41.6633 22.32 38.49C24.0467 35.3167 25.2833 32.9133 26.03 31.28C20.5233 31.9333 16.2767 33.6833 13.29 36.53C10.3033 39.3767 8.81 42.2233 8.81 45.07ZM41.22 23.79C41.22 16.1367 41.01 11.4233 40.59 9.65C40.5433 9.60333 40.4033 9.58 40.17 9.58C39.9367 9.58 39.7967 9.60333 39.75 9.65C39.6567 11.61 38.07 17.0933 34.99 26.1C36.81 26.24 38.8867 26.4967 41.22 26.87V23.79ZM74.697 48.99C71.4303 50.7633 68.5136 51.65 65.947 51.65C63.427 51.65 61.3036 50.6467 59.577 48.64C57.897 46.5867 57.057 43.5533 57.057 39.54C57.057 34.1733 58.5036 29.74 61.397 26.24C64.337 22.74 67.837 20.99 71.897 20.99C73.857 20.99 76.0736 21.5267 78.547 22.6C81.4403 21.7133 84.7303 21.27 88.417 21.27H89.607C89.8403 21.7367 89.957 22.7867 89.957 24.42C89.957 26.0067 89.6536 29.1567 89.047 33.87C88.487 38.5833 87.857 42.5267 87.157 45.7C85.6636 52.4667 83.3303 57.81 80.157 61.73C77.0303 65.6967 73.087 67.68 68.327 67.68C65.9936 67.68 64.0803 67.1667 62.587 66.14C61.1403 65.1133 60.417 63.8067 60.417 62.22C60.417 60.6333 60.7903 59.3033 61.537 58.23C62.3303 57.2033 63.4503 56.34 64.897 55.64C67.3703 54.4267 70.4036 53.4233 73.997 52.63L74.697 48.99ZM75.117 26.66C73.4836 26.66 72.2236 28.06 71.337 30.86C70.497 33.66 70.077 36.6933 70.077 39.96C70.077 43.2267 70.847 44.86 72.387 44.86C73.0403 44.86 73.997 44.5333 75.257 43.88C75.6303 40.1 76.237 34.5 77.077 27.08C76.377 26.8 75.7236 26.66 75.117 26.66ZM67.137 62.5C68.0236 62.5 69.027 62.0567 70.147 61.17C71.3136 60.2833 72.2703 58.8367 73.017 56.83C67.9303 57.7167 65.387 59.07 65.387 60.89C65.4803 61.9633 66.0636 62.5 67.137 62.5ZM89.532 39.33C89.532 33.5433 91.282 29.04 94.782 25.82C98.3287 22.6 102.692 20.99 107.872 20.99C111.465 20.99 114.335 21.7833 116.482 23.37C118.675 24.91 119.772 26.9867 119.772 29.6C119.772 31.5133 119.189 33.2167 118.022 34.71C116.855 36.2033 115.432 37.3467 113.752 38.14C110.205 39.7267 107.125 40.6833 104.512 41.01L102.762 41.22C103.275 44.3 104.815 45.84 107.382 45.84C108.502 45.84 109.739 45.6067 111.092 45.14C112.445 44.6267 113.519 44.1133 114.312 43.6L115.502 42.9L117.742 45.91C117.742 45.91 117.485 46.1667 116.972 46.68C116.692 46.96 116.015 47.52 114.942 48.36C113.915 49.1533 112.819 49.8533 111.652 50.46C110.532 51.0667 109.085 51.6033 107.312 52.07C105.539 52.5833 103.765 52.84 101.992 52.84C98.0254 52.84 94.9454 51.6967 92.752 49.41C90.6054 47.0767 89.532 43.7167 89.532 39.33ZM102.482 36.6C103.835 36.4133 105.189 35.3167 106.542 33.31C107.895 31.2567 108.572 29.5533 108.572 28.2C108.572 26.8 108.175 26.1 107.382 26.1C106.215 26.1 105.142 27.01 104.162 28.83C103.182 30.65 102.622 33.24 102.482 36.6ZM119.46 52.42H118.27C118.27 49.5267 118.924 45.14 120.23 39.26C121.584 33.38 122.26 29.9967 122.26 29.11C122.26 28.2233 122.05 27.36 121.63 26.52C121.21 25.68 120.79 25.05 120.37 24.63L119.74 24L119.88 22.95C122.634 22.0633 127.44 21.62 134.3 21.62C134.767 22.6933 135.094 23.8133 135.28 24.98C139.527 22.3667 143.097 21.06 145.99 21.06C147.95 21.06 149.49 21.7133 150.61 23.02C151.73 24.28 152.29 25.82 152.29 27.64C152.29 29.4133 151.777 32.2833 150.75 36.25C149.724 40.2167 149.21 42.8067 149.21 44.02C149.21 45.1867 149.374 45.77 149.7 45.77L153.41 44.79L154.67 48.29C153.177 49.41 151.217 50.46 148.79 51.44C146.41 52.3733 144.217 52.84 142.21 52.84C138.244 52.84 136.26 50.7867 136.26 46.68C136.26 44.9067 136.75 42.0133 137.73 38C138.71 33.9867 139.2 31.49 139.2 30.51C139.2 29.4833 138.874 28.97 138.22 28.97C137.38 28.97 136.26 29.4367 134.86 30.37C134.674 31.21 134.207 33.24 133.46 36.46C131.967 43.2267 131.22 48.1033 131.22 51.09C128.934 51.9767 125.014 52.42 119.46 52.42ZM177.47 52.84C174.577 52.84 172.71 51.72 171.87 49.48C168.323 51.72 165.15 52.84 162.35 52.84C159.597 52.84 157.357 51.9067 155.63 50.04C153.95 48.1267 153.11 45.0467 153.11 40.8C153.11 35.2467 154.51 30.5567 157.31 26.73C160.157 22.9033 163.82 20.99 168.3 20.99C170.493 20.99 172.687 21.5033 174.88 22.53C176.607 14.6433 177.47 8.97333 177.47 5.52C177.47 4.49333 177.4 3.46666 177.26 2.44C181.6 1.22667 185.777 0.619998 189.79 0.619998C190.163 1.22667 190.35 2.67333 190.35 4.96C190.35 7.2 189.277 13.2667 187.13 23.16C185.03 33.0533 183.98 39.68 183.98 43.04C183.98 44.8133 184.283 45.7 184.89 45.7L187.9 44.72L189.16 48.29C185.053 51.3233 181.157 52.84 177.47 52.84ZM168.3 45.77C169.14 45.77 170.073 45.49 171.1 44.93V44.86C171.287 41.08 172.197 35.13 173.83 27.01C172.897 26.73 172.22 26.59 171.8 26.59C170.82 26.59 169.957 27.08 169.21 28.06C168.463 29.04 167.88 30.3 167.46 31.84C166.667 35.0133 166.27 38.14 166.27 41.22C166.27 44.2533 166.947 45.77 168.3 45.77ZM221.78 23.65C220.8 26.6833 219.96 30.3 219.26 34.5C218.56 38.6533 218.21 41.57 218.21 43.25C218.21 44.8833 218.466 45.7 218.98 45.7L222.48 44.72L223.74 48.22C222.246 49.3867 220.333 50.46 218 51.44C215.713 52.3733 213.683 52.84 211.91 52.84C208.876 52.84 206.963 51.5333 206.17 48.92C202.483 51.5333 199.216 52.84 196.37 52.84C193.57 52.84 191.4 51.8133 189.86 49.76C188.32 47.7067 187.55 44.7667 187.55 40.94C187.55 35.6667 188.903 31.0233 191.61 27.01C194.316 22.9967 197.886 20.99 202.32 20.99C204.746 20.99 207.22 21.6667 209.74 23.02C210.113 22.18 210.416 21.5733 210.65 21.2C214.01 21.2 217.72 22.0167 221.78 23.65ZM200.71 40.1C200.71 42.4333 200.873 43.9033 201.2 44.51C201.526 45.1167 202.133 45.42 203.02 45.42C203.906 45.42 204.77 45.07 205.61 44.37C205.796 38.9567 206.683 33.2867 208.27 27.36C207.57 26.94 206.753 26.73 205.82 26.73C204.933 26.73 204.116 27.2433 203.37 28.27C202.67 29.2967 202.133 30.58 201.76 32.12C201.06 35.06 200.71 37.72 200.71 40.1ZM232.297 52.84C230.337 52.84 228.82 52.3033 227.747 51.23C226.72 50.11 226.207 48.6633 226.207 46.89C226.207 45.07 226.907 43.53 228.307 42.27C229.754 40.9633 231.457 40.31 233.417 40.31C235.424 40.31 236.94 40.8467 237.967 41.92C239.04 42.9467 239.577 44.3467 239.577 46.12C239.577 47.8933 238.854 49.4567 237.407 50.81C236.007 52.1633 234.304 52.84 232.297 52.84Z" fill="#2A2A2A"/>
</svg>
